<?xml version="1.0" standalone="no"?>
<!DOCTYPE svg PUBLIC "-//W3C//DTD SVG 20010904//EN"
 "http://www.w3.org/TR/2001/REC-SVG-20010904/DTD/svg10.dtd">
<svg version="1.0" xmlns="http://www.w3.org/2000/svg"
 width="79.000000pt" height="79.000000pt" viewBox="0 0 79.000000 79.000000"
 preserveAspectRatio="xMidYMid meet">
<metadata>
Created by potrace 1.11, written by Peter Selinger 2001-2013
</metadata>
<g transform="translate(0.000000,79.000000) scale(0.100000,-0.100000)"
fill="#000000" stroke="none">
<path d="M283 776 c-108 -35 -214 -133 -254 -234 -33 -81 -32 -213 0 -295 32
-81 115 -168 199 -209 62 -31 74 -33 167 -33 92 0 106 3 168 32 82 39 154 110
194 190 26 53 28 67 28 168 0 101 -2 115 -28 168 -40 80 -112 151 -194 189
-56 27 -82 33 -153 35 -53 2 -101 -2 -127 -11z"/>
</g>
</svg>
